<svg width="32" height="32" viewBox="0 0 32 32" fill="none" xmlns="http://www.w3.org/2000/svg">
<mask id="mask0_171_288" style="mask-type:alpha" maskUnits="userSpaceOnUse" x="0" y="0" width="32" height="32">
<rect width="32" height="32" fill="#D9D9D9"/>
</mask>
<g mask="url(#mask0_171_288)">
<path d="M13.3329 17.8667L21.0662 10.1333C21.3551 9.84444 21.7107 9.7 22.1329 9.7C22.5551 9.7 22.9107 9.84444 23.1995 10.1333C23.4884 10.4222 23.6329 10.7778 23.6329 11.2C23.6329 11.6222 23.4884 11.9778 23.1995 12.2667L14.3995 21.0667C14.0884 21.3778 13.7329 21.5333 13.3329 21.5333C12.9329 21.5333 12.5773 21.3778 12.2662 21.0667L8.79954 17.6C8.51066 17.3111 8.36621 16.9556 8.36621 16.5333C8.36621 16.1111 8.51066 15.7556 8.79954 15.4667C9.08843 15.1778 9.44399 15.0333 9.86621 15.0333C10.2884 15.0333 10.644 15.1778 10.9329 15.4667L13.3329 17.8667Z" fill="#FFFFFF"/>
</g>
</svg>
