<svg width="61" height="77" viewBox="0 0 61 77" fill="none" xmlns="http://www.w3.org/2000/svg">
<g clip-path="url(#clip0_113_152)">
<path d="M31.6642 37.5929C31.6642 37.5929 10.9328 40.3002 11.1491 28.2512C11.4035 14.0369 26.126 3.03232 37.6967 0C37.6967 0 24.7064 2.49611 15.9039 8.62427C7.10131 14.7524 0 23.2908 0 30.5156C0 37.7405 7.17401 41.2418 10.4384 41.8247C13.7028 42.4076 20.5187 42.7738 31.6642 37.5929Z" fill="#36A53A"/>
<path d="M1.94287 77C1.94287 77 19.9043 70.3543 34.1705 57.0779C48.4367 43.8014 50.9904 23.3281 21.6291 29.2003C21.6291 29.2003 33.6398 24.0792 42.3133 24.0792C50.9868 24.0792 60.9926 25.7607 60.9926 36.0964C60.9999 50.1444 35.0793 75.5259 1.94287 77Z" fill="#2F51A8"/>
<path d="M54.5819 5.62558C56.4958 9.03344 54.9854 13.6127 51.2085 15.8529C47.4315 18.093 42.8203 17.1495 40.9064 13.7417C38.9925 10.3338 40.572 5.87594 44.278 3.51435C47.5024 1.45918 52.668 2.21773 54.5819 5.62558Z" fill="#DE5555"/>
</g>
<defs>
<clipPath id="clip0_113_152">
<rect width="61" height="77" fill="white"/>
</clipPath>
</defs>
</svg>
